<svg id="Layer_1" data-name="Layer 1" xmlns="http://www.w3.org/2000/svg" viewBox="0 0 250 250"><defs><style>.cls-1{fill:#006ca9;}</style></defs><title>button2</title><path class="cls-1" d="M191.25,115v-6.59a21.64,21.64,0,0,0-21.61-21.61H82.91A21.64,21.64,0,0,0,61.3,108.44V115Z"/><path class="cls-1" d="M61.3,120.1H45.09a5.4,5.4,0,0,0-5.4,5.4v32.42a5.4,5.4,0,0,0,5.4,5.4H207.46a5.39,5.39,0,0,0,5.4-5.4V125.5a5.39,5.39,0,0,0-5.4-5.4H61.3Z"/><path class="cls-1" d="M161.06,185.66c3.71-6.1,1-12.08-6.28-12.08H97.72c-7.12,0-10,5.86-6.23,12.08L119.25,231c3.65,6,10.41,5.87,14.06,0Z"/><rect class="cls-1" x="93.28" y="14.05" width="20.13" height="61.06"/><rect class="cls-1" x="139.14" y="14.05" width="20.13" height="61.06"/></svg>