<svg id="Layer_1" data-name="Layer 1" xmlns="http://www.w3.org/2000/svg" viewBox="0 0 250 250"><defs><style>.cls-1{fill:#006ca9;}</style></defs><title>button</title><path class="cls-1" d="M191.3,118v-6.6A21.65,21.65,0,0,0,169.67,89.8H82.88a21.66,21.66,0,0,0-21.63,21.63V118Z"/><path class="cls-1" d="M61.25,123.09H45a5.41,5.41,0,0,0-5.41,5.41V161a5.41,5.41,0,0,0,5.41,5.4H207.52a5.41,5.41,0,0,0,5.41-5.4V128.5a5.41,5.41,0,0,0-5.41-5.41H61.25Z"/><path class="cls-1" d="M161.09,188.71c3.71-6.11,1-12.09-6.28-12.09H97.69c-7.12,0-10,5.86-6.22,12.09l27.78,45.38c3.65,6,10.41,5.86,14.06,0Z"/><rect class="cls-1" x="116.2" y="16.96" width="20.15" height="61.11"/></svg>